2014014_C4_04_grf
version=1
nRows=21
nColumns=19
inDegrees=no
endheader
time	ground_force_1_vx	ground_force_1_vy	ground_force_1_vz	ground_force_1_px	ground_force_1_py	ground_force_1_pz	ground_force_1_mx	ground_force_1_my	ground_force_1_mz	ground_force_2_vx	ground_force_2_vy	ground_force_2_vz	ground_force_2_px	ground_force_2_py	ground_force_2_pz	ground_force_2_mx	ground_force_2_my	ground_force_2_mz
      0.44500000	     -0.66189529	    791.53209925	     24.46267381	      0.30080390	     -0.00200000	     -0.28710547	      0.00000000	     -4.22849454	      0.00000000	      0.00000000	      0.00000000	      0.00000000	      0.00000000	      0.00000000	      0.00000000	      0.00000000	      0.00000000	      0.00000000
      0.44600000	     -0.24883525	    792.96097159	     24.62571859	      0.30108822	     -0.00200000	     -0.28717312	      0.00000000	     -4.23809469	      0.00000000	      0.00000000	      0.00000000	      0.00000000	      0.00000000	      0.00000000	      0.00000000	      0.00000000	      0.00000000	      0.00000000
      0.44700000	      0.16484767	    794.39502209	     24.79054220	      0.30137260	     -0.00200000	     -0.28724002	      0.00000000	     -4.24757311	      0.00000000	      0.00000000	      0.00000000	      0.00000000	      0.00000000	      0.00000000	      0.00000000	      0.00000000	      0.00000000	      0.00000000
      0.44800000	      0.57913992	    795.83264887	     24.95687641	      0.30165708	     -0.00200000	     -0.28730634	      0.00000000	     -4.25693478	      0.00000000	      0.00000000	      0.00000000	      0.00000000	      0.00000000	      0.00000000	      0.00000000	      0.00000000	      0.00000000	      0.00000000
      0.44900000	      0.99434151	    797.27377743	     25.12521762	      0.30194171	     -0.00200000	     -0.28737199	      0.00000000	     -4.26612556	      0.00000000	      0.00000000	      0.00000000	      0.00000000	      0.00000000	      0.00000000	      0.00000000	      0.00000000	      0.00000000	      0.00000000
      0.45000000	      1.41039561	    798.71714115	     25.29526874	      0.30222651	     -0.00200000	     -0.28743714	      0.00000000	     -4.27516015	      0.00000000	      0.00000000	      0.00000000	      0.00000000	      0.00000000	      0.00000000	      0.00000000	      0.00000000	      0.00000000	      0.00000000
      0.45100000	      1.82767247	    800.16247928	     25.46761371	      0.30251154	     -0.00200000	     -0.28750170	      0.00000000	     -4.28397299	      0.00000000	      0.00000000	      0.00000000	      0.00000000	      0.00000000	      0.00000000	      0.00000000	      0.00000000	      0.00000000	      0.00000000
      0.45200000	      2.24605296	    801.60878599	     25.64193867	      0.30279680	     -0.00200000	     -0.28756580	      0.00000000	     -4.29258632	      0.00000000	      0.00000000	      0.00000000	      0.00000000	      0.00000000	      0.00000000	      0.00000000	      0.00000000	      0.00000000	      0.00000000
      0.45300000	      2.66597793	    803.05580050	     25.81894677	      0.30308237	     -0.00200000	     -0.28762938	      0.00000000	     -4.30091999	      0.00000000	      0.00000000	      0.00000000	      0.00000000	      0.00000000	      0.00000000	      0.00000000	      0.00000000	      0.00000000	      0.00000000
      0.45400000	      3.08727939	    804.50281501	     25.99828690	      0.30336824	     -0.00200000	     -0.28769256	      0.00000000	     -4.30900160	      0.00000000	      0.00000000	      0.00000000	      0.00000000	      0.00000000	      0.00000000	      0.00000000	      0.00000000	      0.00000000	      0.00000000
      0.45500000	      3.51048855	    805.94934523	     26.18079819	      0.30365453	     -0.00200000	     -0.28775530	      0.00000000	     -4.31672773	      0.00000000	      0.00000000	      0.00000000	      0.00000000	      0.00000000	      0.00000000	      0.00000000	      0.00000000	      0.00000000	      0.00000000
      0.45600000	      3.93538224	    807.39513040	     26.36606060	      0.30394116	     -0.00200000	     -0.28781770	      0.00000000	     -4.32413452	      0.00000000	      0.00000000	      0.00000000	      0.00000000	      0.00000000	      0.00000000	      0.00000000	      0.00000000	      0.00000000	      0.00000000
      0.45700000	      4.36259084	    808.83953720	     26.55504923	      0.30422827	     -0.00200000	     -0.28787974	      0.00000000	     -4.33109345	      0.00000000	      0.00000000	      0.00000000	      0.00000000	      0.00000000	      0.00000000	      0.00000000	      0.00000000	      0.00000000	      0.00000000
      0.45800000	      4.79182042	    810.28260291	     26.74725652	      0.30451577	     -0.00200000	     -0.28794151	      0.00000000	     -4.33765229	      0.00000000	      0.00000000	      0.00000000	      0.00000000	      0.00000000	      0.00000000	      0.00000000	      0.00000000	      0.00000000	      0.00000000
      0.45900000	      5.22378925	    811.72373146	     26.94380376	      0.30480377	     -0.00200000	     -0.28800298	      0.00000000	     -4.34365600	      0.00000000	      0.00000000	      0.00000000	      0.00000000	      0.00000000	      0.00000000	      0.00000000	      0.00000000	      0.00000000	      0.00000000
      0.46000000	      5.65812225	    813.16299736	     27.14408189	      0.30509217	     -0.00200000	     -0.28806426	      0.00000000	     -4.34916937	      0.00000000	      0.00000000	      0.00000000	      0.00000000	      0.00000000	      0.00000000	      0.00000000	      0.00000000	      0.00000000	      0.00000000
      0.46100000	      6.09562709	    814.59976733	     27.34935656	      0.30538106	     -0.00200000	     -0.28812530	      0.00000000	     -4.35400996	      0.00000000	      0.00000000	      0.00000000	      0.00000000	      0.00000000	      0.00000000	      0.00000000	      0.00000000	      0.00000000	      0.00000000
      0.46200000	      6.53584022	    816.03430212	     27.55889669	      0.30567034	     -0.00200000	     -0.28818619	      0.00000000	     -4.35826360	      0.00000000	      0.00000000	      0.00000000	      0.00000000	      0.00000000	      0.00000000	      0.00000000	      0.00000000	      0.00000000	      0.00000000
      0.46300000	      6.97964756	    817.46589392	     27.77411230	      0.30596009	     -0.00200000	     -0.28824685	      0.00000000	     -4.36172201	      0.00000000	      0.00000000	      0.00000000	      0.00000000	      0.00000000	      0.00000000	      0.00000000	      0.00000000	      0.00000000	      0.00000000
      0.46400000	      7.42649380	    818.89502704	     27.99415216	      0.30625018	     -0.00200000	     -0.28830735	      0.00000000	     -4.36449265	      0.00000000	      0.00000000	      0.00000000	      0.00000000	      0.00000000	      0.00000000	      0.00000000	      0.00000000	      0.00000000	      0.00000000
      0.46500000	      7.87734543	    820.32091916	     28.22059579	      0.30654068	     -0.00200000	     -0.28836765	      0.00000000	     -4.36633430	      0.00000000	      0.00000000	      0.00000000	      0.00000000	      0.00000000	      0.00000000	      0.00000000	      0.00000000	      0.00000000	      0.00000000
